<mxfile host="app.diagrams.net" agent="Mozilla/5.0 (Windows NT 10.0; Win64; x64) AppleWebKit/537.36 (KHTML, like Gecko) Chrome/134.0.0.0 Safari/537.36" version="26.1.1">
  <diagram name="Page-1" id="6wFPv-Ol7YiRCmXcF5sg">
    <mxGraphModel dx="2250" dy="743" grid="1" gridSize="10" guides="1" tooltips="1" connect="1" arrows="1" fold="1" page="1" pageScale="1" pageWidth="850" pageHeight="1100" math="0" shadow="0">
      <root>
        <mxCell id="0" />
        <mxCell id="1" parent="0" />
        <mxCell id="VwdY4uBwfLOqkR9WjEWb-27" value="" style="edgeStyle=orthogonalEdgeStyle;rounded=0;orthogonalLoop=1;jettySize=auto;html=1;" edge="1" parent="1" source="VwdY4uBwfLOqkR9WjEWb-28" target="VwdY4uBwfLOqkR9WjEWb-30">
          <mxGeometry relative="1" as="geometry" />
        </mxCell>
        <mxCell id="VwdY4uBwfLOqkR9WjEWb-28" value="&lt;h1&gt;Start&lt;/h1&gt;" style="ellipse;whiteSpace=wrap;html=1;fillColor=#d5e8d4;strokeColor=#82b366;" vertex="1" parent="1">
          <mxGeometry x="-60" y="120" width="120" height="80" as="geometry" />
        </mxCell>
        <mxCell id="VwdY4uBwfLOqkR9WjEWb-29" value="" style="edgeStyle=orthogonalEdgeStyle;rounded=0;orthogonalLoop=1;jettySize=auto;html=1;" edge="1" parent="1" source="VwdY4uBwfLOqkR9WjEWb-30" target="VwdY4uBwfLOqkR9WjEWb-32">
          <mxGeometry relative="1" as="geometry" />
        </mxCell>
        <mxCell id="VwdY4uBwfLOqkR9WjEWb-30" value="&lt;h1&gt;Input CP&lt;/h1&gt;" style="shape=parallelogram;perimeter=parallelogramPerimeter;whiteSpace=wrap;html=1;fixedSize=1;fillColor=#f8cecc;strokeColor=#b85450;" vertex="1" parent="1">
          <mxGeometry x="-130" y="250" width="260" height="60" as="geometry" />
        </mxCell>
        <mxCell id="VwdY4uBwfLOqkR9WjEWb-31" value="" style="edgeStyle=orthogonalEdgeStyle;rounded=0;orthogonalLoop=1;jettySize=auto;html=1;" edge="1" parent="1" source="VwdY4uBwfLOqkR9WjEWb-32">
          <mxGeometry relative="1" as="geometry">
            <mxPoint y="480" as="targetPoint" />
          </mxGeometry>
        </mxCell>
        <mxCell id="VwdY4uBwfLOqkR9WjEWb-32" value="&lt;h1&gt;Input SP&lt;/h1&gt;" style="shape=parallelogram;perimeter=parallelogramPerimeter;whiteSpace=wrap;html=1;fixedSize=1;fillColor=#f8cecc;strokeColor=#b85450;" vertex="1" parent="1">
          <mxGeometry x="-135" y="360" width="270" height="60" as="geometry" />
        </mxCell>
        <mxCell id="VwdY4uBwfLOqkR9WjEWb-37" value="&lt;h1&gt;Stop&lt;/h1&gt;&lt;div&gt;&lt;br&gt;&lt;/div&gt;" style="ellipse;whiteSpace=wrap;html=1;fillColor=#d5e8d4;strokeColor=#82b366;" vertex="1" parent="1">
          <mxGeometry x="-60" y="720" width="120" height="80" as="geometry" />
        </mxCell>
        <mxCell id="VwdY4uBwfLOqkR9WjEWb-40" value="" style="edgeStyle=orthogonalEdgeStyle;rounded=0;orthogonalLoop=1;jettySize=auto;html=1;" edge="1" parent="1" source="VwdY4uBwfLOqkR9WjEWb-38" target="VwdY4uBwfLOqkR9WjEWb-39">
          <mxGeometry relative="1" as="geometry" />
        </mxCell>
        <mxCell id="VwdY4uBwfLOqkR9WjEWb-42" value="" style="edgeStyle=orthogonalEdgeStyle;rounded=0;orthogonalLoop=1;jettySize=auto;html=1;" edge="1" parent="1" source="VwdY4uBwfLOqkR9WjEWb-38" target="VwdY4uBwfLOqkR9WjEWb-41">
          <mxGeometry relative="1" as="geometry" />
        </mxCell>
        <mxCell id="VwdY4uBwfLOqkR9WjEWb-38" value="&lt;h1&gt;Is SP &amp;gt; CP?&lt;/h1&gt;" style="rhombus;whiteSpace=wrap;html=1;fillColor=#e1d5e7;strokeColor=#9673a6;" vertex="1" parent="1">
          <mxGeometry x="-130" y="480" width="260" height="80" as="geometry" />
        </mxCell>
        <mxCell id="VwdY4uBwfLOqkR9WjEWb-39" value="" style="shape=waypoint;sketch=0;size=6;pointerEvents=1;points=[];fillColor=#e1d5e7;resizable=0;rotatable=0;perimeter=centerPerimeter;snapToPoint=1;strokeColor=#9673a6;" vertex="1" parent="1">
          <mxGeometry x="-240" y="510" width="20" height="20" as="geometry" />
        </mxCell>
        <mxCell id="VwdY4uBwfLOqkR9WjEWb-41" value="" style="shape=waypoint;sketch=0;size=6;pointerEvents=1;points=[];fillColor=#e1d5e7;resizable=0;rotatable=0;perimeter=centerPerimeter;snapToPoint=1;strokeColor=#9673a6;" vertex="1" parent="1">
          <mxGeometry x="220" y="510" width="20" height="20" as="geometry" />
        </mxCell>
        <mxCell id="VwdY4uBwfLOqkR9WjEWb-46" value="" style="edgeStyle=orthogonalEdgeStyle;rounded=0;orthogonalLoop=1;jettySize=auto;html=1;" edge="1" parent="1" source="VwdY4uBwfLOqkR9WjEWb-43" target="VwdY4uBwfLOqkR9WjEWb-45">
          <mxGeometry relative="1" as="geometry" />
        </mxCell>
        <mxCell id="VwdY4uBwfLOqkR9WjEWb-43" value="&lt;h1&gt;Profit = SP - CP&lt;/h1&gt;" style="rounded=0;whiteSpace=wrap;html=1;fillColor=#dae8fc;strokeColor=#6c8ebf;" vertex="1" parent="1">
          <mxGeometry x="-490" y="490" width="260" height="60" as="geometry" />
        </mxCell>
        <mxCell id="VwdY4uBwfLOqkR9WjEWb-56" value="" style="edgeStyle=orthogonalEdgeStyle;rounded=0;orthogonalLoop=1;jettySize=auto;html=1;" edge="1" parent="1" source="VwdY4uBwfLOqkR9WjEWb-44" target="VwdY4uBwfLOqkR9WjEWb-54">
          <mxGeometry relative="1" as="geometry" />
        </mxCell>
        <mxCell id="VwdY4uBwfLOqkR9WjEWb-44" value="&lt;h1&gt;Loss = CP&amp;nbsp; - SP&lt;/h1&gt;" style="rounded=0;whiteSpace=wrap;html=1;fillColor=#dae8fc;strokeColor=#6c8ebf;" vertex="1" parent="1">
          <mxGeometry x="230" y="490" width="260" height="60" as="geometry" />
        </mxCell>
        <mxCell id="VwdY4uBwfLOqkR9WjEWb-48" value="" style="edgeStyle=orthogonalEdgeStyle;rounded=0;orthogonalLoop=1;jettySize=auto;html=1;" edge="1" parent="1" source="VwdY4uBwfLOqkR9WjEWb-45" target="VwdY4uBwfLOqkR9WjEWb-47">
          <mxGeometry relative="1" as="geometry" />
        </mxCell>
        <mxCell id="VwdY4uBwfLOqkR9WjEWb-45" value="&lt;h1&gt;Display Profit&lt;/h1&gt;" style="shape=parallelogram;perimeter=parallelogramPerimeter;whiteSpace=wrap;html=1;fixedSize=1;fillColor=#f8cecc;strokeColor=#b85450;rounded=0;" vertex="1" parent="1">
          <mxGeometry x="-490" y="630" width="260" height="60" as="geometry" />
        </mxCell>
        <mxCell id="VwdY4uBwfLOqkR9WjEWb-50" value="" style="edgeStyle=orthogonalEdgeStyle;rounded=0;orthogonalLoop=1;jettySize=auto;html=1;" edge="1" parent="1" source="VwdY4uBwfLOqkR9WjEWb-47" target="VwdY4uBwfLOqkR9WjEWb-49">
          <mxGeometry relative="1" as="geometry" />
        </mxCell>
        <mxCell id="VwdY4uBwfLOqkR9WjEWb-47" value="" style="shape=waypoint;sketch=0;size=6;pointerEvents=1;points=[];fillColor=#f8cecc;resizable=0;rotatable=0;perimeter=centerPerimeter;snapToPoint=1;strokeColor=#b85450;rounded=0;" vertex="1" parent="1">
          <mxGeometry x="-370" y="740" width="20" height="20" as="geometry" />
        </mxCell>
        <mxCell id="VwdY4uBwfLOqkR9WjEWb-49" value="" style="shape=waypoint;sketch=0;size=6;pointerEvents=1;points=[];fillColor=#f8cecc;resizable=0;rotatable=0;perimeter=centerPerimeter;snapToPoint=1;strokeColor=#b85450;rounded=0;" vertex="1" parent="1">
          <mxGeometry x="-70" y="740" width="20" height="20" as="geometry" />
        </mxCell>
        <mxCell id="VwdY4uBwfLOqkR9WjEWb-51" value="&lt;h2&gt;Yes&lt;/h2&gt;" style="text;html=1;align=center;verticalAlign=middle;whiteSpace=wrap;rounded=0;" vertex="1" parent="1">
          <mxGeometry x="-200" y="490" width="60" height="30" as="geometry" />
        </mxCell>
        <mxCell id="VwdY4uBwfLOqkR9WjEWb-52" value="&lt;h2&gt;No&lt;/h2&gt;" style="text;html=1;align=center;verticalAlign=middle;whiteSpace=wrap;rounded=0;" vertex="1" parent="1">
          <mxGeometry x="150" y="490" width="60" height="30" as="geometry" />
        </mxCell>
        <mxCell id="VwdY4uBwfLOqkR9WjEWb-53" value="" style="edgeStyle=orthogonalEdgeStyle;rounded=0;orthogonalLoop=1;jettySize=auto;html=1;" edge="1" parent="1" source="VwdY4uBwfLOqkR9WjEWb-54" target="VwdY4uBwfLOqkR9WjEWb-55">
          <mxGeometry relative="1" as="geometry" />
        </mxCell>
        <mxCell id="VwdY4uBwfLOqkR9WjEWb-54" value="&lt;h1&gt;Display Loss&lt;/h1&gt;" style="shape=parallelogram;perimeter=parallelogramPerimeter;whiteSpace=wrap;html=1;fixedSize=1;fillColor=#f8cecc;strokeColor=#b85450;rounded=0;" vertex="1" parent="1">
          <mxGeometry x="230" y="610" width="260" height="60" as="geometry" />
        </mxCell>
        <mxCell id="VwdY4uBwfLOqkR9WjEWb-58" value="" style="edgeStyle=orthogonalEdgeStyle;rounded=0;orthogonalLoop=1;jettySize=auto;html=1;" edge="1" parent="1" source="VwdY4uBwfLOqkR9WjEWb-55" target="VwdY4uBwfLOqkR9WjEWb-57">
          <mxGeometry relative="1" as="geometry" />
        </mxCell>
        <mxCell id="VwdY4uBwfLOqkR9WjEWb-55" value="" style="shape=waypoint;sketch=0;size=6;pointerEvents=1;points=[];fillColor=#f8cecc;resizable=0;rotatable=0;perimeter=centerPerimeter;snapToPoint=1;strokeColor=#b85450;rounded=0;" vertex="1" parent="1">
          <mxGeometry x="350" y="740" width="20" height="20" as="geometry" />
        </mxCell>
        <mxCell id="VwdY4uBwfLOqkR9WjEWb-57" value="" style="shape=waypoint;sketch=0;size=6;pointerEvents=1;points=[];fillColor=#f8cecc;resizable=0;rotatable=0;perimeter=centerPerimeter;snapToPoint=1;strokeColor=#b85450;rounded=0;" vertex="1" parent="1">
          <mxGeometry x="60" y="740" width="20" height="20" as="geometry" />
        </mxCell>
      </root>
    </mxGraphModel>
  </diagram>
</mxfile>
